# xmcd CD database file
#
# Track frame offsets:
#	150
#	26911
#	49457
#	76500
#	107010
#	131552
#	157972
#	186315
#	211437
#	233362
#	256990
#	276147
#	300458
#
# Disc length: 4329 seconds
#
# Revision: 0
# Processed by: cddbd v1.5.2PL0 Copyright (c) Steve Scherf et al.
# Submitted via: CDex 1.51
#
DISCID=a710e70d
DTITLE=Various Artist - Arabic Lounge
DYEAR=2007
DGENRE=Lounge
TTITLE0=Sirocco (radar)
TTITLE1=Soft music under the stars (Fila)
TTITLE2=Born again (Domez)
TTITLE3=Phase 3 (Trrrase)
TTITLE4=Hayati (Jah Wobble)
TTITLE5=Mi corazon (Al-Pah.x)
TTITLE6=Carnival (Traschen)
TTITLE7=Jaisalmer (Chandra Mahal)
TTITLE8=Sanctuary (Romero)
TTITLE9=Hope (Asha Bendalmi)
TTITLE10=Take it away (Underwater)
TTITLE11=My time (Timpo Tempo)
TTITLE12=Al Zihad (Robitique)
EXTD=YEAR: 2007
EXTT0=
EXTT1=
EXTT2=
EXTT3=
EXTT4=
EXTT5=
EXTT6=
EXTT7=
EXTT8=
EXTT9=
EXTT10=
EXTT11=
EXTT12=
PLAYORDER=
